Coordinates
version=1
nRows=24
nColumns=24
inDegrees=yes

Units are S.I. units (second, meters, Newtons, ...)
Angles are in degrees.

endheader
time	pelvis_tilt	pelvis_list	pelvis_rotation	pelvis_tx	pelvis_ty	pelvis_tz	hip_flexion_r	hip_adduction_r	hip_rotation_r	knee_angle_r	ankle_angle_r	subtalar_angle_r	mtp_angle_r	hip_flexion_l	hip_adduction_l	hip_rotation_l	knee_angle_l	ankle_angle_l	subtalar_angle_l	mtp_angle_l	lumbar_extension	lumbar_bending	lumbar_rotation
      0.68616667	      0.68796316	     -0.25792904	      6.12239633	     -0.41984614	      1.06233645	      0.30153142	     12.79142603	      0.48641620	     -5.55863412	    -27.24098371	     15.37449177	     -5.32679129	      3.80387431	     16.72324459	     -4.51830487	     -4.00910109	    -73.62012045	      1.98247607	      5.86058419	      6.00586343	     -9.91905195	      3.28954188	      0.09687575
      0.69033333	      0.66406361	     -0.03618445	      6.08526214	     -0.41390448	      1.06379245	      0.30141047	     12.21834091	      0.28743305	     -5.51919546	    -26.79111025	     15.44105702	     -5.23911303	      3.81452334	     17.25955179	     -4.18160731	     -4.26393618	    -73.19180164	      2.36452014	      6.33956276	      6.01607432	     -9.88025317	      3.06382418	      0.12737746
      0.69450000	      0.64526243	      0.18149066	      6.03361571	     -0.40795075	      1.06522154	      0.30131235	     11.63625883	      0.09568392	     -5.47031984	    -26.32933244	     15.52499128	     -5.13625187	      3.82787669	     17.77095617	     -3.86148051	     -4.53575887	    -72.69757344	      2.74070579	      6.88527343	      6.03260660	     -9.84042103	      2.84155017	      0.17742504
      0.69866667	      0.63146700	      0.39356335	      5.97497757	     -0.40198194	      1.06665305	      0.30121065	     11.04175063	     -0.08932151	     -5.41914117	    -25.84710106	     15.59574433	     -5.03495238	      3.84401040	     18.25594499	     -3.55126134	     -4.80794382	    -72.13100099	      3.11188746	      7.45459670	      6.05554716	     -9.80691964	      2.62495147	      0.24475744
      0.70283333	      0.61332787	      0.60177034	      5.90964703	     -0.39602158	      1.06803771	      0.30110086	     10.45136840	     -0.27036995	     -5.36185832	    -25.35601175	     15.64233232	     -4.94815250	      3.85917336	     18.73024741	     -3.24425528	     -5.07563088	    -71.50670436	      3.47374074	      8.02647056	      6.08238193	     -9.76669100	      2.40827076	      0.30799459
      0.70700000	      0.60982678	      0.80279080	      5.83166382	     -0.39005694	      1.06939866	      0.30101635	      9.84237524	     -0.43965140	     -5.29194791	    -24.85097215	     15.70737728	     -4.85851778	      3.88563146	     19.17152684	     -2.95978245	     -5.35565366	    -70.82473646	      3.83548446	      8.62808079	      6.12421414	     -9.74047138	      2.19615666	      0.42140969
      0.71116667	      0.58791258	      1.02554179	      5.74928974	     -0.38410056	      1.07072859	      0.30090979	      9.25788511	     -0.63857163	     -5.22241449	    -24.35530411	     15.71260329	     -4.79619733	      3.90082127	     19.60855145	     -2.63927490	     -5.62235620	    -70.06490247	      4.16559383	      9.18051331	      6.15699554	     -9.69969042	      1.96180491	      0.47096200
      0.71533333	      0.57306398	      1.23407636	      5.65608704	     -0.37814518	      1.07199789	      0.30082809	      8.66709538	     -0.81838141	     -5.14051783	    -23.85241264	     15.73808752	     -4.73608006	      3.91812239	     20.02428628	     -2.34731777	     -5.89448175	    -69.25867818	      4.49947900	      9.75028550	      6.19449129	     -9.66680496	      1.74051546	      0.55005541
      0.71950000	      0.57396744	      1.43704467	      5.55838599	     -0.37219113	      1.07324613	      0.30075341	      8.05400438	     -0.98869171	     -5.04511543	    -23.33252669	     15.76976191	     -4.67732875	      3.94719754	     20.40632515	     -2.06857966	     -6.16157874	    -68.39773170	      4.82276082	     10.29772020	      6.25181635	     -9.65664016	      1.51621097	      0.68967826
      0.72366667	      0.54250521	      1.64633590	      5.45124021	     -0.36623566	      1.07439537	      0.30067390	      7.48789612	     -1.17314530	     -4.95352289	    -22.83254577	     15.77738180	     -4.64063552	      3.96838765	     20.80363488	     -1.77823110	     -6.42376151	    -67.47673228	      5.12215905	     10.79702845	      6.29970914	     -9.59504902	      1.28649324	      0.77575362
      0.72783333	      0.49805896	      1.85662495	      5.34466436	     -0.36030118	      1.07545520	      0.30058086	      6.94363918	     -1.36332576	     -4.86288238	    -22.34479383	     15.76375080	     -4.59976327	      3.98250103	     21.20236924	     -1.48112324	     -6.66376337	    -66.50725898	      5.41018928	     11.24517752	      6.33747684	     -9.53320068	      1.05913031	      0.84689674
      0.73200000	      0.47608821	      2.06258476	      5.23097527	     -0.35437748	      1.07650365	      0.30049872	      6.37460671	     -1.54596019	     -4.76269339	    -21.84794393	     15.76258884	     -4.56959701	      3.99660027	     21.55854133	     -1.19722790	     -6.89953292	    -65.48380276	      5.68645894	     11.66478571	      6.37606663	     -9.49401100	      0.83547412	      0.94508884
      0.73616667	      0.42513113	      2.26607905	      5.11444186	     -0.34844539	      1.07742986	      0.30042082	      5.84367434	     -1.72993851	     -4.66144151	    -21.36091552	     15.76050986	     -4.54079289	      4.00850912	     21.93134758	     -0.91541070	     -7.12507686	    -64.41549564	      5.94470361	     12.01989751	      6.41123604	     -9.42051574	      0.60391040	      1.04546366
      0.74033333	      0.40900916	      2.44646409	      4.99396824	     -0.34255089	      1.07834224	      0.30035290	      5.27277116	     -1.88211954	     -4.53767880	    -20.85473285	     15.75314334	     -4.53874823	      4.03477921	     22.25746420	     -0.66663995	     -7.33280909	    -63.30977644	      6.19682074	     12.33254452	      6.48472205	     -9.39874895	      0.38650695	      1.26418245
      0.74450000	      0.35073098	      2.63498993	      4.87435003	     -0.33665259	      1.07911516	      0.30026964	      4.76197215	     -2.05383435	     -4.43190660	    -20.38027624	     15.75787880	     -4.52785313	      4.05319091	     22.61147959	     -0.40171193	     -7.52212056	    -62.15304646	      6.41754428	     12.57574652	      6.54331867	     -9.31634225	      0.17136375	      1.37873779
      0.74866667	      0.26752750	      2.81546946	      4.77122347	     -0.33074191	      1.07978080	      0.30015049	      4.27654919	     -2.22458495	     -4.36498598	    -19.90080561	     15.74012181	     -4.49111416	      4.05694096	     22.98129595	     -0.13649727	     -7.67883546	    -60.95898394	      6.63675327	     12.73583192	      6.56438512	     -9.19262142	     -0.04423952	      1.41824556
      0.75283333	      0.23196466	      3.00226586	      4.63590294	     -0.32489970	      1.08044623	      0.30008492	      3.75979034	     -2.39525055	     -4.24370616	    -19.45207944	     15.76186679	     -4.50488132	      4.06724855	     23.27576665	      0.11998778	     -7.84144411	    -59.70369605	      6.81029150	     12.86484349	      6.61477964	     -9.15114057	     -0.25235751	      1.61727497
      0.75700000	      0.15776506	      3.17956935	      4.52083024	     -0.31905423	      1.08097743	      0.29998465	      3.28508136	     -2.56464554	     -4.16405915	    -19.00171075	     15.76292434	     -4.48716295	      4.07241139	     23.60315908	      0.37770104	     -7.96340061	    -58.41552575	      6.98160899	     12.91204196	      6.65527415	     -9.05544817	     -0.45396756	      1.73787268
      0.76116667	      0.06360215	      3.34614933	      4.41101461	     -0.31321630	      1.08139878	      0.29985712	      2.84011099	     -2.72818393	     -4.09621042	    -18.56588571	     15.75029711	     -4.46203258	      4.07307165	     23.93755245	      0.63139728	     -8.05027984	    -57.08718666	      7.15484865	     12.91758702	      6.67852262	     -8.94030844	     -0.64560953	      1.81837053
      0.76533333	     -0.01871602	      3.50304718	      4.30020229	     -0.30740767	      1.08174744	      0.29973459	      2.38720954	     -2.88143039	     -4.03001578	    -18.13323558	     15.76705017	     -4.44495236	      4.07281656	     24.24575455	      0.87025138	     -8.11893576	    -55.72083384	      7.29056489	     12.84157316	      6.70437073	     -8.84005196	     -0.83164358	      1.94672309
      0.76950000	     -0.09917673	      3.65137227	      4.19094092	     -0.30161842	      1.08203612	      0.29961219	      1.93286333	     -3.02565060	     -3.96430480	    -17.69649329	     15.80412420	     -4.40706933	      4.07049506	     24.53556337	      1.10329782	     -8.15362996	    -54.31049504	      7.39147738	     12.67499826	      6.74793546	     -8.75126929	     -1.01339195	      2.13969717
      0.77366667	     -0.18844144	      3.79647056	      4.08554630	     -0.29583937	      1.08222771	      0.29947985	      1.49786246	     -3.17225537	     -3.92721273	    -17.27938835	     15.83172102	     -4.36479662	      4.06491026	     24.81733529	      1.33316269	     -8.16470160	    -52.85951820	      7.49420744	     12.49118077	      6.78711316	     -8.64709020	     -1.18666813	      2.26769408
      0.77783333	     -0.31633256	      3.92631934	      3.98711271	     -0.29007326	      1.08226992	      0.29932894	      1.11413930	     -3.30742790	     -3.89882759	    -16.87788838	     15.84481197	     -4.32755651	      4.05878603	     25.12706660	      1.55251199	     -8.13818596	    -51.37395518	      7.60004063	     12.28776230	      6.81076917	     -8.49916777	     -1.34128505	      2.35943301
      0.78200000	     -0.41476325	      4.05200068	      3.89008269	     -0.28433275	      1.08230187	      0.29917829	      0.69788085	     -3.43761526	     -3.88357203	    -16.47193199	     15.87780912	     -4.27890245	      4.05121154	     25.38416099	      1.76724778	     -8.07941007	    -49.84101079	      7.66609332	     12.00185482	      6.83336975	     -8.39495084	     -1.49480026	      2.47235805
